<?xml version="1.0" encoding="UTF-8"?><svg id="PRINT" xmlns="http://www.w3.org/2000/svg" viewBox="0 0 700.69 247.7"><defs><style>.cls-1{font-size:120px;}.cls-1,.cls-2,.cls-3{font-family:Righteous-Regular, Righteous;}.cls-4{fill:#17c548;}.cls-5{letter-spacing:0em;}.cls-2{letter-spacing:.2em;}.cls-2,.cls-3{font-size:100px;}.cls-3{letter-spacing:.2em;}</style></defs><g id="CUSTOM-group"><path class="cls-4" d="M139.94,71.35c.9,0,1.79-.37,2.43-1.01.64-.64,1.01-1.52,1.01-2.43s-.37-1.79-1.01-2.43c-.64-.64-1.53-1.01-2.43-1.01s-1.79.37-2.43,1.01c-.64.64-1.01,1.52-1.01,2.43s.37,1.79,1.01,2.43c.64.64,1.52,1.01,2.43,1.01Z"/><path class="cls-4" d="M349.18,121.51h-176.48c-.09,0-.17-.03-.27-.03-9.77,0-19.5.89-29.06,2.64v-7.41c12.42-10.51,19.23-24.28,19.23-38.95s-7.28-29.37-20.51-40.01c-1.26-1.01-3.05-1.01-4.31,0-13.23,10.64-20.51,24.84-20.51,40.01s6.82,28.44,19.23,38.95v8.82c-6.53,1.49-12.96,3.38-19.26,5.66v-20.11c0-.94-.38-1.8-1-2.42h0s-19.24-19.35-19.24-19.35c-.65-.65-1.52-1.01-2.44-1.01h-39.27c-.91,0-1.79.36-2.44,1.01l-19.24,19.35h0c-.62.62-1,1.48-1,2.42v13.12c-2.39-.44-4.8-.83-7.21-1.16v-12.25c9.39-8.08,14.54-18.61,14.54-29.83s-5.62-22.7-15.82-30.9c-1.26-1.01-3.05-1.01-4.3,0-10.2,8.2-15.82,19.18-15.82,30.9s5.15,21.75,14.54,29.83v11.46c-5.01-.47-10.05-.71-15.11-.71-1.9,0-3.43,1.54-3.43,3.44s1.54,3.43,3.43,3.43c27.47,0,54.33,7.27,78.02,21.05-5.67,3.86-11.09,8.07-16.22,12.6-19.19-9.78-40.51-14.94-61.79-14.94-1.9,0-3.43,1.54-3.43,3.44s1.54,3.43,3.43,3.43c19.36,0,38.77,4.5,56.39,13.05-5.22,5.05-10.1,10.46-14.61,16.17-13.36-5.6-27.4-8.44-41.78-8.44-1.9,0-3.43,1.54-3.43,3.43s1.54,3.43,3.43,3.43c12.88,0,25.47,2.44,37.51,7.25-2.37,3.3-4.63,6.69-6.75,10.16l-5.23,8.58c-.99,1.62-.48,3.73,1.14,4.72.56.34,1.18.5,1.79.5,1.16,0,2.29-.59,2.93-1.65l5.23-8.58c2.73-4.47,5.68-8.78,8.82-12.91.12-.14.24-.28.34-.44,22.6-29.46,55.31-49.92,91.41-57.59,0,0,.01,0,.02,0,10.36-2.2,21-3.35,31.76-3.35h176.78c1.86,0,3.37-1.53,3.37-3.42s-1.51-3.42-3.37-3.42ZM21.98,74.78c-1.9,0-3.44,1.54-3.44,3.44v22.86c-4.99-5.93-7.67-12.87-7.67-20.11,0-8.76,3.92-17.08,11.1-23.7,7.18,6.61,11.1,14.93,11.1,23.7,0,7.24-2.68,14.18-7.67,20.11v-22.86c0-1.9-1.54-3.44-3.43-3.44ZM55.3,96.6l10.98,11.04h-21.96l10.98-11.04ZM59.42,131.53c-2.72-1-5.47-1.93-8.24-2.79v-2.6h8.24v5.39ZM71.1,136.36c-1.59-.73-3.19-1.44-4.81-2.12v-11.54c0-1.9-1.54-3.44-3.43-3.44h-15.11c-1.9,0-3.43,1.54-3.43,3.44v4.08c-1.6-.42-3.2-.81-4.81-1.18v-11.09h31.6v21.84ZM63.56,95.16h29.59l12.41,12.48h-29.59l-12.41-12.48ZM110.38,133.86c-5.88,2.44-11.63,5.22-17.21,8.35-1.78,1-3.54,2.04-5.28,3.1-3.25-1.98-6.55-3.85-9.91-5.59v-25.21h32.4v19.34ZM139.94,77.53c-1.9,0-3.43,1.54-3.43,3.43v26.3c-8.02-8.49-12.36-18.75-12.36-29.51,0-12.21,5.59-23.77,15.8-32.84,10.21,9.06,15.8,20.63,15.8,32.84,0,10.76-4.34,21.02-12.36,29.51v-26.3c0-1.9-1.54-3.43-3.43-3.43Z"/></g><text class="cls-2" transform="translate(103.68 222.01)"><tspan x="0" y="0">A</tspan></text><text class="cls-3" transform="translate(191.06 222.01) scale(.7)"><tspan x="0" y="0">GRO</tspan></text><text class="cls-2" transform="translate(379.7 222.01)"><tspan x="0" y="0">M</tspan></text><text class="cls-3" transform="translate(481.68 222.01) scale(.7)"><tspan x="0" y="0">ARKT</tspan></text><text class="cls-1" transform="translate(185.83 102.01)"><tspan x="0" y="0">EXPR</tspan><tspan class="cls-5" x="297.71" y="0">E</tspan><tspan x="366.15" y="0">SS</tspan></text></svg>